Monster404    color: black;
<svg xmlns="http://www.w3.org/2000/svg" xmlns:xlink="http://www.w3.org/1999/xlink" viewBox="0,0,256,256" width="50px" height="50px" fill-rule="nonzero"><g fill="#a42618" fill-rule="nonzero" stroke="none" stroke-width="1" stroke-linecap="butt" stroke-linejoin="miter" stroke-miterlimit="10" stroke-dasharray="" stroke-dashoffset="0" font-family="none" font-weight="none" font-size="none" text-anchor="none" style="mix-blend-mode: normal"><g transform="scale(5.12,5.12)"><path d="M12.98828,2c-0.553,0 -1,0.448 -1,1v44c0,0.358 0.19095,0.68919 0.50195,0.86719c0.311,0.178 0.69295,0.17609 1.00195,-0.00391l11.49609,-6.70508l11.49609,6.70508c0.155,0.091 0.32991,0.13672 0.50391,0.13672c0.172,0 0.34405,-0.04381 0.49805,-0.13281c0.311,-0.178 0.50195,-0.50919 0.50195,-0.86719v-13.21875c0.65072,0.13435 1.32273,0.20703 2.01172,0.20703c5.5,0 10,-4.5 10,-10c0,-5.5 -4.5,-10 -10,-10c-0.68899,0 -1.361,0.07073 -2.01172,0.20508v-11.19336c0,-0.552 -0.447,-1 -1,-1zM40,15.98828c4.4,0 8,3.6 8,8c0,4.4 -3.6,8 -8,8c-4.4,0 -8,-3.6 -8,-8c0,-4.4 3.6,-8 8,-8zM35.09961,22.98828c-0.6,0 -1,0.4 -1,1c0,0.6 0.4,1 1,1h9.80078c0.6,0 1,-0.4 1,-1c0,-0.6 -0.4,-1 -1,-1z"></path></g></g></svg>