<svg xmlns="http://www.w3.org/2000/svg" width="21.69" height="27.288" viewBox="0 0 21.69 27.288">
  <path id="icon-report" d="M3.849,27.288A3.853,3.853,0,0,1,0,23.439V3.849A3.853,3.853,0,0,1,3.849,0H13.67a1.047,1.047,0,0,1,.689.281l.027.026,7,7,.018.018,0,0,.015.016,0,0,.015.017,0,0a1.044,1.044,0,0,1,.251.63V8c0,.006,0,.013,0,.019s0,.018,0,.027V23.439a3.852,3.852,0,0,1-3.848,3.849ZM2.1,3.849v19.59a1.751,1.751,0,0,0,1.749,1.749H17.842a1.751,1.751,0,0,0,1.749-1.749V9.1H15.043a2.451,2.451,0,0,1-2.448-2.448V2.1H3.849A1.751,1.751,0,0,0,2.1,3.849Zm12.594,2.8a.35.35,0,0,0,.349.35h3.065L14.694,3.584Zm-.7,13.994v-4.2a1.05,1.05,0,1,1,2.1,0v4.2a1.05,1.05,0,0,1-2.1,0Zm-4.2,0v-1.4a1.049,1.049,0,1,1,2.1,0v1.4a1.049,1.049,0,1,1-2.1,0Zm-4.2,0v-7a1.05,1.05,0,0,1,2.1,0v7a1.05,1.05,0,0,1-2.1,0Z" fill="#2f6e49"/>
</svg>
