<svg xmlns="http://www.w3.org/2000/svg" width="24" height="14.154" viewBox="0 0 24 14.154">
  <path id="icon-trends" d="M.27,13.884a.925.925,0,0,1,0-1.306L7.655,5.194a.921.921,0,0,1,1.3,0l4.27,4.27,7.618-7.618H14.462a.923.923,0,1,1,0-1.847h8.614a.921.921,0,0,1,.429.106h0l.018.01,0,0,.015.008.006,0,.012.007.008,0,.01.006.01.006L23.6.161l.011.008.007,0,.012.009.006,0,.012.01,0,0,.013.011,0,0,.015.012h0q.025.022.049.045L23.76.3h0l.01.011.006.007.007.008.009.01,0,.006.01.013,0,0,.012.016h0A.918.918,0,0,1,24,.923V9.538a.923.923,0,0,1-1.847,0V3.152l-8.27,8.269a.923.923,0,0,1-1.306,0l-4.27-4.27L1.576,13.884a.924.924,0,0,1-1.306,0Z" transform="translate(0)" fill="#2f6e49"/>
</svg>
