<svg xmlns="http://www.w3.org/2000/svg" width="11.351" height="12" viewBox="0 0 11.351 12">
  <path id="icon-download" d="M-1.216,15A1.786,1.786,0,0,1-3,13.216v-1.3a.486.486,0,0,1,.486-.486.486.486,0,0,1,.486.486v1.3a.812.812,0,0,0,.811.811H6.568a.812.812,0,0,0,.81-.811v-1.3a.487.487,0,0,1,.973,0v1.3A1.786,1.786,0,0,1,6.568,15Zm3.892-3.243H2.563l-.007,0h0l-.009,0h0a.481.481,0,0,1-.21-.124L-.912,8.371a.487.487,0,0,1,0-.688.487.487,0,0,1,.688,0L2.189,10.1V3.487a.486.486,0,1,1,.973,0V10.1L5.575,7.683a.487.487,0,0,1,.688.688L3.02,11.614l-.009.008,0,0,0,0L3,11.636l0,0-.008.007h0a.483.483,0,0,1-.119.073h0l-.01,0h0l-.009,0h0l-.007,0-.005,0-.005,0-.007,0h0l-.008,0h0l-.009,0h0l-.009,0h0l-.01,0h0l-.01,0h0l-.01,0h-.07Z" transform="translate(3 -3)" fill="#2f6e49"/>
</svg>
