<svg xmlns="http://www.w3.org/2000/svg" width="27.289" height="27.288" viewBox="0 0 27.289 27.288">
  <path id="icon-track" d="M13.6,27a1,1,0,0,1,0-1.412L17.6,21.591a1,1,0,0,1,1.411,0l1.956,1.956,2.915-2.915H22.3a1,1,0,1,1,0-2h3.961a1,1,0,0,1,.874.46h0l.012.019,0,0,.01.016,0,.006.007.013.006.01,0,.009.008.015,0,0a.993.993,0,0,1,.1.441v3.993a1,1,0,1,1-2,0V22.045l-3.62,3.62a1,1,0,0,1-1.411,0L18.3,23.709,15.016,27A1,1,0,0,1,13.6,27ZM8.985,25.957H6.323A3.665,3.665,0,0,1,2.662,22.3V13.977H1a1,1,0,0,1-.706-1.7L12.273.292a1,1,0,0,1,1.412,0l11.98,11.98a1,1,0,0,1-.707,1.7H23.294v.332a1,1,0,1,1-2,0V12.978a1,1,0,0,1,1-1h.253L12.978,2.41l-9.57,9.57h.253a1,1,0,0,1,1,1V22.3A1.666,1.666,0,0,0,6.323,23.96H7.987V16.972a3.664,3.664,0,0,1,3.66-3.661h2.662a3.665,3.665,0,0,1,3.661,3.661,1,1,0,0,1-2,0,1.666,1.666,0,0,0-1.664-1.664H11.647a1.666,1.666,0,0,0-1.664,1.664v7.045a1,1,0,0,1-.332,1.941Z" transform="translate(0 0)" fill="#2f6e49"/>
</svg>
