<svg xmlns="http://www.w3.org/2000/svg" width="13.5" height="11.785" viewBox="0 0 13.5 11.785">
  <path id="icon-arrow" d="M5.143-.75a.748.748,0,0,1,.53.22.748.748,0,0,1,.22.53.748.748,0,0,1-.22.53L1.811,4.392H12a.75.75,0,0,1,0,1.5H1.811L5.673,9.755a.75.75,0,0,1-1.061,1.061L-.53,5.673h0l0,0,0,0,0,0h0A.75.75,0,0,1-.662,5.5V5.481q-.013-.026-.024-.052A.747.747,0,0,1-.75,5.156v0s0-.006,0-.01,0-.006,0-.01V5.126h0a.747.747,0,0,1,.055-.268.747.747,0,0,1,.159-.241l0,0h0L4.613-.53A.748.748,0,0,1,5.143-.75Z" transform="translate(12.75 11.035) rotate(180)" fill="#fff"/>
</svg>
