<svg id="illustration" xmlns="http://www.w3.org/2000/svg" width="379.252" height="189" viewBox="0 0 379.252 189">
  <circle id="Ellipse_7" data-name="Ellipse 7" cx="18.642" cy="18.642" r="18.642" transform="translate(84.906 117.295)" fill="#e4e4e4"/>
  <path id="Path_79" data-name="Path 79" d="M354.1,519.474A18.644,18.644,0,0,0,385.16,539.2a18.644,18.644,0,1,1-31.064-19.73Z" transform="translate(-264.313 -395.988)" opacity="0.2" style="mix-blend-mode: normal;isolation: isolate"/>
  <path id="Path_80" data-name="Path 80" d="M246.95,325.819H247l.922,52.854h-1.946Z" transform="translate(-143.351 -189.881)" fill="#3f3d56"/>
  <circle id="Ellipse_8" data-name="Ellipse 8" cx="37.586" cy="37.586" r="37.586" transform="translate(28.243 44.642)" fill="#e4e4e4"/>
  <path id="Path_81" data-name="Path 81" d="M223.46,360.416a37.589,37.589,0,0,0,62.63,39.78,37.589,37.589,0,1,1-62.63-39.78Z" transform="translate(-185.383 -303.292)" opacity="0.2" style="mix-blend-mode: normal;isolation: isolate"/>
  <path id="Path_82" data-name="Path 82" d="M155.289,197.087h.1l1.859,106.563h-3.924Z" transform="translate(-89.356 -114.859)" fill="#3f3d56"/>
  <rect id="Rectangle_78" data-name="Rectangle 78" width="172.279" height="51.071" transform="translate(141.357 133.635)" fill="#f0f0f0"/>
  <rect id="Rectangle_79" data-name="Rectangle 79" width="20.088" height="40.516" transform="translate(217.453 144.19)" fill="#cacaca"/>
  <rect id="Rectangle_80" data-name="Rectangle 80" width="152.191" height="46.985" transform="translate(151.401 73.372)" fill="#f0f0f0"/>
  <path id="Path_83" data-name="Path 83" d="M652.31,299.766H469.261a1.532,1.532,0,0,1-1.062-2.637l50.028-48.087V228.1a1.534,1.534,0,0,1,1.532-1.532h9.874a1.534,1.534,0,0,1,1.532,1.532v8.51l3.779-3.632a33.95,33.95,0,0,1,46.228-.769l72.164,64.889a1.532,1.532,0,0,1-1.024,2.672Z" transform="translate(-333.289 -223.5)" fill="#cacaca"/>
  <path id="Path_84" data-name="Path 84" d="M445.622,204.421h0a9.7,9.7,0,0,1,9.7,9.7v13.108H435.919V214.124A9.7,9.7,0,0,1,445.622,204.421Z" transform="translate(-254.045 -119.133)" fill="#fff"/>
  <path id="Path_85" data-name="Path 85" d="M531.716,204.829h0a9.7,9.7,0,0,1,9.7,9.7V227.64H522.012V214.532A9.7,9.7,0,0,1,531.716,204.829Z" transform="translate(-304.219 -119.37)" fill="#fff"/>
  <path id="Path_86" data-name="Path 86" d="M617.809,205.237h0a9.7,9.7,0,0,1,9.7,9.7v13.108H608.106V214.94A9.7,9.7,0,0,1,617.809,205.237Z" transform="translate(-354.393 -119.608)" fill="#fff"/>
  <path id="Path_87" data-name="Path 87" d="M652.083,344.373h0a9.7,9.7,0,0,1,9.7,9.7v13.108H642.38V354.077A9.7,9.7,0,0,1,652.083,344.373Z" transform="translate(-374.367 -200.694)" fill="#fff"/>
  <path id="Path_88" data-name="Path 88" d="M421.957,344.373h0a9.7,9.7,0,0,1,9.7,9.7v13.108H412.254V354.077A9.7,9.7,0,0,1,421.957,344.373Z" transform="translate(-240.254 -200.694)" fill="#fff"/>
  <path id="Path_89" data-name="Path 89" d="M645.467,525.574l-32.318-14.3a1.362,1.362,0,0,0-.551-.116H458.578a1.361,1.361,0,0,0-.513.1l-35.178,14.3a1.362,1.362,0,0,0,.513,2.624h9.127v46.985h-1.021v4.767h205.3v-4.767h-1.7V528.181h9.808a1.362,1.362,0,0,0,.551-2.607Zm-13.082,49.592H435.251V528.181H632.384Z" transform="translate(-306.661 -391.142)" fill="#cacaca"/>
  <rect id="Rectangle_81" data-name="Rectangle 81" width="24.854" height="4.086" transform="translate(178.809 106.227)" fill="#cacaca"/>
  <rect id="Rectangle_82" data-name="Rectangle 82" width="24.854" height="4.086" transform="translate(215.24 106.227)" fill="#cacaca"/>
  <rect id="Rectangle_83" data-name="Rectangle 83" width="24.854" height="4.086" transform="translate(251.67 106.227)" fill="#cacaca"/>
  <rect id="Rectangle_84" data-name="Rectangle 84" width="24.854" height="4.086" transform="translate(265.289 165.129)" fill="#cacaca"/>
  <rect id="Rectangle_85" data-name="Rectangle 85" width="24.854" height="4.086" transform="translate(168.936 165.129)" fill="#cacaca"/>
  <path id="Path_90" data-name="Path 90" d="M524.334,675.334H145.917a.417.417,0,1,1,0-.834H524.334a.417.417,0,0,1,0,.834Z" transform="translate(-145.5 -486.334)" fill="#3f3d56"/>
  <path id="Path_91" data-name="Path 91" d="M699.427,388.932c0,.267,0,.538-.008.805,0,.321-.013.638-.025.96-.013.28-.025.555-.042.83-.05.922-.129,1.84-.238,2.762-.025.234-.054.463-.088.7-.025.179-.05.363-.079.547-.029.2-.058.409-.092.613q-.1.651-.225,1.3c-.042.217-.083.434-.129.651-.088.43-.184.864-.284,1.293-.008.033-.017.071-.025.1-.05.213-.1.421-.154.634-.017.063-.029.121-.05.184-.038.159-.079.317-.121.476-.058.221-.117.438-.179.659-.1.342-.2.68-.3,1.022a1.091,1.091,0,0,0-.033.108c-.2.647-.413,1.285-.647,1.919-.121.334-.25.672-.38,1.005s-.263.668-.4,1-.271.643-.409.96c-.033.075-.067.15-.1.225-.146.33-.3.651-.451.972,0,0,0,.013-.008.017-.121.259-.25.517-.38.772a.031.031,0,0,1-.008.021c-.125.25-.254.5-.388.747l-.213.4-.025.046c-.267.5-.542.989-.834,1.477-.063.109-.125.217-.188.321s-.129.217-.2.321q-.062.113-.138.225c-.088.142-.175.288-.267.43-.017.029-.038.058-.054.088-.159.246-.317.488-.476.734-.2.3-.4.588-.6.88l-4.531,7.251-.2-.163-.054-.05h0l-.179-.15-.492-.417c-.15.146-.3.292-.447.434-.058.058-.121.113-.179.171-.046.042-.088.083-.134.125a43.69,43.69,0,0,1-29.2,12.412h-.012a47.688,47.688,0,0,1-23.794-5.616c-.163-.084-.321-.167-.48-.263-.951-.517-1.882-1.064-2.8-1.648,0,0-.008,0-.013-.008q-1.59-1.127-3.1-2.4a45.863,45.863,0,0,1-16.242-37.462c.013-.28.029-.555.05-.834q.1-1.514.309-3.016c.038-.28.079-.559.121-.834H699q.263,1.915.363,3.851C699.406,387.326,699.427,388.127,699.427,388.932Z" transform="translate(-415.774 -316.261)" fill="#f0f0f0"/>
  <path id="Path_92" data-name="Path 92" d="M699.159,329.044a45.1,45.1,0,0,0-89.193,0c-.042.275-.083.555-.121.834q-.206,1.5-.309,3.017h89.986Q699.422,330.961,699.159,329.044Z" transform="translate(-415.932 -262.635)" fill="#f5d248"/>
  <path id="Path_93" data-name="Path 93" d="M688.363,451.454H662.521V430.782c.477-9.447,8.551-10.21,16.138-9.7a9.7,9.7,0,0,1,9.7,9.7Z" transform="translate(-446.81 -338.577)" fill="#f5d248"/>
  <path id="Path_94" data-name="Path 94" d="M631.483,360.165v0s0,0,.008,0ZM621.09,328.394c-.017.1-.038.209-.054.313.017-.1.038-.209.058-.313Zm-.517,3.851c-.013.159-.025.317-.033.476q.013-.238.038-.476a.618.618,0,0,1,0-.088C620.577,332.186,620.577,332.215,620.573,332.245Zm10.91,27.924s0,0,.008,0l-.008-.008ZM621.09,328.394c-.017.1-.038.209-.054.313.017-.1.038-.209.058-.313Zm-.551,4.327q.013-.238.038-.476a.618.618,0,0,1,0-.088c0,.029,0,.058-.008.088C620.56,332.4,620.548,332.562,620.54,332.72Zm128.9,76.752a2.831,2.831,0,0,0-.259-.242l0,0L728.512,391.79l-.534-.451-2.032-1.715-.509-.43-2.9-2.445-.793-.668-1.64-1.385-.839-.709-7.911-6.671-4.535-3.826-.609-.513L692.852,361.7c.2-.292.4-.584.6-.88.159-.246.317-.488.476-.734.017-.029.037-.058.054-.088.092-.142.179-.288.267-.43q.075-.113.138-.225c.067-.1.134-.213.2-.321s.125-.213.188-.321c.292-.488.567-.981.834-1.477l.025-.046.213-.4c.133-.246.263-.5.388-.747a.031.031,0,0,0,.008-.021c.129-.255.259-.513.38-.772,0,0,0-.013.008-.017.154-.321.3-.643.451-.972.037-.075.071-.15.1-.225.138-.317.275-.638.409-.96s.271-.663.4-1,.259-.672.38-1.006q.344-.957.647-1.919a1.065,1.065,0,0,1,.033-.108c.1-.342.2-.68.3-1.022.063-.221.121-.438.179-.659.042-.158.083-.317.121-.476.021-.063.033-.121.05-.184.054-.213.1-.421.154-.634.008-.033.017-.071.025-.1.1-.43.2-.864.284-1.293.046-.217.088-.434.129-.651.079-.434.159-.868.225-1.3.033-.2.063-.409.092-.613.029-.184.054-.367.079-.547.033-.234.063-.463.088-.7.108-.922.188-1.84.238-2.762.017-.275.029-.551.042-.83.012-.321.021-.638.025-.96,0-.267.008-.538.008-.805,0-.805-.021-1.606-.063-2.411q-.1-1.934-.363-3.851a45.916,45.916,0,0,0-90.862-.834c-.042.275-.083.555-.121.834q-.206,1.5-.309,3.017c-.021.28-.037.555-.05.834a45.863,45.863,0,0,0,16.242,37.462q1.514,1.277,3.1,2.4s.008,0,.013.008c.355.25.709.5,1.068.738.572.376,1.147.743,1.727,1.093.046.025.092.054.138.079.5.3,1.005.588,1.51.868h0a45.126,45.126,0,0,0,5.837,2.687,46.055,46.055,0,0,0,18.454,2.9h.012a45.8,45.8,0,0,0,20.823-6.162c.922-.534,1.831-1.106,2.72-1.715.221-.15.446-.3.663-.459.267-.188.534-.384.8-.58,0,0,0,0,.008,0a.613.613,0,0,1,.063-.046c.179-.138.363-.275.538-.409.046-.033.092-.067.138-.1a.2.2,0,0,0,.033-.029c.1-.075.2-.159.309-.238s.2-.163.309-.246a.4.4,0,0,0,.05-.038c.117-.1.234-.188.35-.284s.238-.2.35-.292.229-.192.346-.292c.1-.083.2-.171.3-.263.033-.025.063-.054.1-.083a.3.3,0,0,1,.042-.033c.138-.117.271-.238.4-.359.033-.029.063-.058.1-.088.2-.184.409-.367.609-.559l.142-.129c.046-.042.088-.083.134-.125.058-.058.121-.113.179-.171.15-.142.3-.288.447-.434l.492.417.179.15h0l.054.05.2.163,2.912,2.462.063.054.05.038.33.28.659.559.659.555.1.079,3.066,2.587.426.359,2.958,2.495,15.312,12.921.534.451,20.957,17.682,5.374,4.535,2,1.686a4.228,4.228,0,0,0,5.962-.5,4.109,4.109,0,0,0,.705-1.185A4.21,4.21,0,0,0,749.435,409.472ZM628.579,312.756a34.4,34.4,0,0,1,60.059,15.637c.054.28.1.555.15.834.171,1,.3,2.007.371,3.017.021.28.042.555.054.834.037.626.054,1.256.054,1.882a34.245,34.245,0,0,1-1.861,11.156v0a34.215,34.215,0,0,1-6.246,11.006c-.058.067-.117.138-.179.2-.551.651-1.131,1.277-1.727,1.873,0,0-.008.013-.012.017-.2.2-.413.413-.622.6-.426.413-.859.805-1.3,1.181q-1,.87-2.04,1.631c-.234.171-.467.338-.705.5s-.471.325-.709.484c-.476.317-.96.622-1.448.91-.242.146-.492.288-.739.426s-.5.275-.747.4-.5.263-.755.388c-.5.255-1.014.492-1.531.713q-.388.175-.776.325c-.163.067-.321.134-.484.192a1.57,1.57,0,0,1-.2.075q-.131.056-.263.1a.748.748,0,0,1-.088.033c-.179.071-.355.134-.538.2-.263.1-.526.184-.793.267s-.53.171-.8.246-.538.159-.805.229-.538.146-.809.209c-.288.075-.576.142-.868.2-.255.058-.5.108-.759.154-.238.05-.48.092-.718.133-.334.058-.668.113-1.005.159-.184.029-.363.054-.547.071-.079.013-.154.021-.229.029-.234.033-.467.058-.7.079-.062,0-.121.013-.179.017-.254.025-.513.046-.768.067-.547.038-1.089.063-1.636.075-.275,0-.555.008-.83.008s-.551,0-.826-.013c0,0,0,0,0,0s0,0-.008,0l0,0,0,0a.071.071,0,0,1-.042,0c-.2,0-.392-.008-.584-.021-.142,0-.288-.008-.434-.021q-.294-.013-.588-.038c-.062,0-.125-.008-.188-.012a.625.625,0,0,1-.088-.008c-.2-.017-.4-.033-.605-.054-.1-.008-.2-.017-.3-.029-.3-.033-.609-.071-.91-.113-.342-.042-.684-.092-1.022-.154-.159-.021-.313-.05-.467-.079q-.307-.05-.613-.113c-.213-.042-.426-.083-.638-.134-.171-.038-.346-.075-.517-.117-.083-.017-.167-.038-.246-.058-.438-.1-.872-.217-1.3-.342-.271-.075-.542-.154-.809-.238-.367-.113-.73-.234-1.093-.363-.142-.046-.28-.1-.422-.15s-.279-.1-.421-.154-.259-.1-.384-.146c-.209-.079-.413-.163-.618-.246-.421-.171-.834-.35-1.247-.542-.234-.113-.467-.221-.7-.334q-1.358-.657-2.674-1.46c-.217-.129-.434-.267-.651-.4-.271-.167-.534-.342-.8-.517-.146-.1-.288-.2-.43-.3-.263-.184-.522-.371-.776-.559-.134-.1-.267-.2-.4-.3-.463-.35-.918-.718-1.364-1.093-.213-.179-.426-.363-.634-.551-.088-.075-.175-.154-.263-.234s-.2-.179-.3-.275l-.008-.008c-.146-.129-.292-.267-.434-.4-.221-.209-.438-.421-.647-.638s-.426-.434-.63-.651-.409-.438-.6-.663-.4-.446-.588-.676-.371-.442-.547-.663q-.638-.789-1.218-1.606c-.179-.25-.35-.5-.517-.755s-.35-.522-.513-.784-.334-.53-.492-.8a.087.087,0,0,0-.017-.025c-.313-.53-.613-1.064-.893-1.606s-.559-1.107-.814-1.669c-.129-.28-.255-.563-.371-.847-.242-.572-.467-1.143-.676-1.723-.1-.28-.2-.559-.3-.843a.207.207,0,0,0-.017-.054c-.192-.576-.367-1.156-.521-1.74,0-.008,0-.017-.008-.025-.079-.288-.154-.576-.221-.868-.067-.254-.125-.509-.179-.768-.063-.288-.125-.576-.179-.868-.029-.15-.058-.3-.083-.451-.025-.125-.046-.254-.067-.38s-.042-.255-.063-.384q-.063-.382-.113-.763c-.042-.3-.075-.6-.109-.905-.038-.363-.071-.726-.1-1.093-.021-.246-.033-.5-.046-.747-.013-.229-.025-.459-.029-.688a.057.057,0,0,1,0-.038.005.005,0,0,1,0,0,.006.006,0,0,1,0,0s0,0,0-.008a.005.005,0,0,1,0,0,.006.006,0,0,1,0,0c0-.092-.008-.184-.008-.275q-.012-.407-.012-.814c0-.246,0-.488.008-.734q.013-.513.038-1.026c0-.075.008-.146.013-.221s.008-.146.012-.221q.013-.238.038-.476a.618.618,0,0,1,0-.088c.013-.179.029-.359.046-.538.033-.359.075-.722.121-1.081.025-.179.046-.359.075-.538.017-.125.038-.254.058-.384s.038-.259.063-.388c.029-.171.058-.346.092-.522.017-.1.038-.209.058-.313q.119-.626.263-1.252c.1-.421.2-.839.321-1.256s.238-.843.371-1.264c.063-.213.129-.421.2-.63.138-.421.284-.839.446-1.252.075-.2.154-.413.242-.618.167-.413.342-.826.521-1.231.092-.2.184-.409.284-.613.188-.4.384-.809.6-1.206s.426-.8.651-1.193.459-.784.705-1.172c.113-.192.238-.388.367-.576.25-.384.513-.768.78-1.143C627.386,314.229,627.966,313.482,628.579,312.756Zm-8.006,19.488c-.013.159-.025.317-.033.476q.013-.238.038-.476a.618.618,0,0,1,0-.088C620.577,332.186,620.577,332.215,620.573,332.245Zm.517-3.851c-.017.1-.038.209-.054.313.017-.1.038-.209.058-.313Zm10.393,31.771v0s0,0,.008,0Z" transform="translate(-415.774 -261.985)" fill="#3f3d56"/>
  <path id="Path_95" data-name="Path 95" d="M643.252,396.783a34.4,34.4,0,0,1-5.837-46.245q-.987.994-1.908,2.081a34.4,34.4,0,1,0,52.582,44.368q.919-1.089,1.731-2.23A34.4,34.4,0,0,1,643.252,396.783Z" transform="translate(-426.341 -297.536)" opacity="0.3" style="mix-blend-mode: normal;isolation: isolate"/>
</svg>
