<svg xmlns="http://www.w3.org/2000/svg" width="92.467" height="15.372" viewBox="0 0 92.467 15.372">
  <g id="stars" transform="translate(-0.002 -277.254)">
    <path id="Path_35" data-name="Path 35" d="M15.817,283.918a.751.751,0,0,0-.4-1.284l-4.531-.7a.189.189,0,0,1-.141-.1l-2-4.127A.751.751,0,0,0,7.4,277.7l-2.063,4.094a.19.19,0,0,1-.142.1l-4.542.622a.751.751,0,0,0-.426,1.278l3.256,3.227h0a.187.187,0,0,1,.053.167L2.723,291.7a.751.751,0,0,0,1.083.8l4.074-2.1a.187.187,0,0,1,.175,0l4.04,2.166a.751.751,0,0,0,1.1-.783l-.738-4.523a.187.187,0,0,1,.055-.166Z" transform="translate(0 -0.027)" fill="#2f6e49"/>
    <path id="Path_36" data-name="Path 36" d="M160.454,283.9a.751.751,0,0,0-.406-1.284l-4.532-.7a.189.189,0,0,1-.14-.1l-2-4.127a.751.751,0,0,0-1.347-.011l-2.062,4.094a.189.189,0,0,1-.142.1l-4.542.623h0a.75.75,0,0,0-.427,1.277l3.257,3.227a.187.187,0,0,1,.053.166l-.812,4.512a.751.751,0,0,0,1.083.8l4.075-2.1a.186.186,0,0,1,.174,0l4.04,2.166h0a.751.751,0,0,0,1.1-.783l-.738-4.523a.187.187,0,0,1,.055-.166Z" transform="translate(-125.531 -0.014)" fill="#2f6e49"/>
    <path id="Path_37" data-name="Path 37" d="M305.077,283.891a.751.751,0,0,0-.406-1.284l-4.531-.7a.189.189,0,0,1-.141-.1l-2-4.127a.751.751,0,0,0-1.349-.011l-2.06,4.1a.189.189,0,0,1-.142.1l-4.542.623h0a.751.751,0,0,0-.427,1.277l3.257,3.227a.187.187,0,0,1,.053.166l-.811,4.512h0a.751.751,0,0,0,1.083.8l4.075-2.1a.187.187,0,0,1,.175,0l4.04,2.166a.75.75,0,0,0,1.1-.783l-.738-4.524a.189.189,0,0,1,.055-.166Z" transform="translate(-251.05 0)" fill="#2f6e49"/>
    <path id="Path_38" data-name="Path 38" d="M449.714,283.9a.751.751,0,0,0-.406-1.284l-4.53-.7a.191.191,0,0,1-.141-.1l-2-4.127a.751.751,0,0,0-1.346-.011l-2.062,4.1a.188.188,0,0,1-.142.1l-4.542.623h0a.75.75,0,0,0-.426,1.277l3.257,3.227h0a.187.187,0,0,1,.053.166l-.811,4.512h0a.752.752,0,0,0,1.084.8l4.074-2.1a.187.187,0,0,1,.175,0l4.04,2.166a.751.751,0,0,0,1.1-.782l-.74-4.524a.187.187,0,0,1,.056-.166Z" transform="translate(-376.58 -0.014)" fill="#2f6e49"/>
    <path id="Path_39" data-name="Path 39" d="M594.341,283.9a.751.751,0,0,0-.406-1.284l-4.531-.7a.189.189,0,0,1-.14-.1l-2-4.127a.751.751,0,0,0-1.346-.011l-2.062,4.1a.188.188,0,0,1-.142.1l-4.542.623h0a.751.751,0,0,0-.426,1.277l3.257,3.227h0a.19.19,0,0,1,.053.166l-.811,4.512h0a.751.751,0,0,0,1.083.8l4.075-2.1a.186.186,0,0,1,.175,0l4.04,2.166a.751.751,0,0,0,1.1-.783l-.738-4.524a.189.189,0,0,1,.055-.166Z" transform="translate(-502.103 -0.014)" fill="#2f6e49"/>
  </g>
</svg>
